Gallery: 
 
http://imagedomino.com/?g=352151

Studio
Vivid
Starring
Scarlett Fay, Ron Jeremy, Lily LaBeau, Zoe Voss, Sarah Shevon, Jesse Andrews
Genre
Feature
Description
Someone Has Taken Their Love Of Porn Parodies One Step Too Far!Do Not Answer The Phone, Do Not Open The Door, Do Not Forget The Lube!Making Porn Parodies Can Be Murder!This is the only Jesse Andrews video.

Duration                         : 1h 3mn
Bit rate                         : 1 433 Kbps
Width                            : 624 pixels
Height                           : 352 pixels
Display aspect ratio             : 16:9
Frame rate                       : 23.976 fps
Color space                      : YUV
Chroma subsampling               : 4:2:0
Bit depth                        : 8 bits
Scan type                        : Progressive
Compression mode                 : Lossy
Bits/(Pixel*Frame)               : 0.272
Stream size                      : 647 MiB (92%)

Duration                         : 1h 3mn
Bit rate                         : 1 433 Kbps
Width                            : 624 pixels
Height                           : 352 pixels
Display aspect ratio             : 16:9
Frame rate                       : 23.976 fps
Color space                      : YUV
Chroma subsampling               : 4:2:0
Bit depth                        : 8 bits
Scan type                        : Progressive
Compression mode                 : Lossy
Bits/(Pixel*Frame)               : 0.272
Stream size                      : 647 MiB (92%)